<mxfile host="app.diagrams.net" modified="2022-05-16T13:35:25.587Z" agent="5.0 (Windows)" etag="qDoHvyODfTvOK_rAfFgf" version="18.0.5" type="github">
  <diagram id="zpOUXv7veA4DBRBq1obv" name="Page-1">
    <mxGraphModel dx="944" dy="455" grid="1" gridSize="10" guides="1" tooltips="1" connect="1" arrows="1" fold="1" page="1" pageScale="1" pageWidth="827" pageHeight="1169" math="0" shadow="0">
      <root>
        <mxCell id="0" />
        <mxCell id="1" parent="0" />
        <mxCell id="v1ncO_xghCPxQYF_cH6F-3" value="OUVRAGE" style="swimlane;" vertex="1" parent="1">
          <mxGeometry x="360" y="40" width="200" height="200" as="geometry" />
        </mxCell>
        <mxCell id="v1ncO_xghCPxQYF_cH6F-7" value="BIBLIOTHEQUE_CENTRALE" style="swimlane;fontStyle=1;childLayout=stackLayout;horizontal=1;startSize=30;horizontalStack=0;resizeParent=1;resizeParentMax=0;resizeLast=0;collapsible=1;marginBottom=0;" vertex="1" parent="1">
          <mxGeometry x="300" y="310" width="180" height="90" as="geometry" />
        </mxCell>
        <mxCell id="v1ncO_xghCPxQYF_cH6F-8" value="ID" style="text;strokeColor=none;fillColor=none;align=left;verticalAlign=middle;spacingLeft=4;spacingRight=4;overflow=hidden;points=[[0,0.5],[1,0.5]];portConstraint=eastwest;rotatable=0;fontStyle=4" vertex="1" parent="v1ncO_xghCPxQYF_cH6F-7">
          <mxGeometry y="30" width="180" height="30" as="geometry" />
        </mxCell>
        <mxCell id="v1ncO_xghCPxQYF_cH6F-9" value="Nom" style="text;strokeColor=none;fillColor=none;align=left;verticalAlign=middle;spacingLeft=4;spacingRight=4;overflow=hidden;points=[[0,0.5],[1,0.5]];portConstraint=eastwest;rotatable=0;" vertex="1" parent="v1ncO_xghCPxQYF_cH6F-7">
          <mxGeometry y="60" width="180" height="30" as="geometry" />
        </mxCell>
        <mxCell id="v1ncO_xghCPxQYF_cH6F-11" value="MOT_CLE" style="swimlane;fontStyle=1;childLayout=stackLayout;horizontal=1;startSize=30;horizontalStack=0;resizeParent=1;resizeParentMax=0;resizeLast=0;collapsible=1;marginBottom=0;" vertex="1" parent="1">
          <mxGeometry x="60" y="290" width="180" height="60" as="geometry" />
        </mxCell>
        <mxCell id="v1ncO_xghCPxQYF_cH6F-12" value="mot" style="text;strokeColor=none;fillColor=none;align=left;verticalAlign=middle;spacingLeft=4;spacingRight=4;overflow=hidden;points=[[0,0.5],[1,0.5]];portConstraint=eastwest;rotatable=0;fontStyle=4" vertex="1" parent="v1ncO_xghCPxQYF_cH6F-11">
          <mxGeometry y="30" width="180" height="30" as="geometry" />
        </mxCell>
        <mxCell id="v1ncO_xghCPxQYF_cH6F-14" value="BIBLIOTHEQUE_CENTRALE" style="swimlane;fontStyle=1;childLayout=stackLayout;horizontal=1;startSize=30;horizontalStack=0;resizeParent=1;resizeParentMax=0;resizeLast=0;collapsible=1;marginBottom=0;" vertex="1" parent="1">
          <mxGeometry x="60" y="60" width="180" height="90" as="geometry" />
        </mxCell>
        <mxCell id="v1ncO_xghCPxQYF_cH6F-15" value="ID" style="text;strokeColor=none;fillColor=none;align=left;verticalAlign=middle;spacingLeft=4;spacingRight=4;overflow=hidden;points=[[0,0.5],[1,0.5]];portConstraint=eastwest;rotatable=0;fontStyle=4" vertex="1" parent="v1ncO_xghCPxQYF_cH6F-14">
          <mxGeometry y="30" width="180" height="30" as="geometry" />
        </mxCell>
        <mxCell id="v1ncO_xghCPxQYF_cH6F-16" value="Nom" style="text;strokeColor=none;fillColor=none;align=left;verticalAlign=middle;spacingLeft=4;spacingRight=4;overflow=hidden;points=[[0,0.5],[1,0.5]];portConstraint=eastwest;rotatable=0;" vertex="1" parent="v1ncO_xghCPxQYF_cH6F-14">
          <mxGeometry y="60" width="180" height="30" as="geometry" />
        </mxCell>
      </root>
    </mxGraphModel>
  </diagram>
</mxfile>
